<svg xmlns="http://www.w3.org/2000/svg" viewBox="0 0 720 420" font-family="Inter,Arial,sans-serif">
<rect width="720" height="420" fill="white"/>
<text x="30" y="34" font-size="16.5" font-weight="700" fill="#1a1a2e">AutoInterp reproduction — score converges to published with token budget</text>
<text x="30" y="54" font-size="12" fill="#555">Standard 4k SAE, Pythia-160M L8, judge = gpt-4o-mini (the paper's judge)</text>
<line x1="80" y1="350" x2="560" y2="350" stroke="#1a1a2e" stroke-width="1.2"/>
<line x1="80" y1="80" x2="80" y2="350" stroke="#1a1a2e" stroke-width="1.2"/>
<line x1="102.6" y1="80" x2="102.6" y2="350" stroke="#f0f0f0"/>
<text x="102.6" y="366" font-size="10" fill="#555" text-anchor="middle">24k</text>
<line x1="238.9" y1="80" x2="238.9" y2="350" stroke="#f0f0f0"/>
<text x="238.9" y="366" font-size="10" fill="#555" text-anchor="middle">96k</text>
<line x1="401.1" y1="80" x2="401.1" y2="350" stroke="#f0f0f0"/>
<text x="401.1" y="366" font-size="10" fill="#555" text-anchor="middle">500k</text>
<line x1="537.4" y1="80" x2="537.4" y2="350" stroke="#f0f0f0"/>
<text x="537.4" y="366" font-size="10" fill="#555" text-anchor="middle">2M</text>
<text x="74" y="314.4" font-size="10" fill="#555" text-anchor="end">0.68</text>
<text x="74" y="237.3" font-size="10" fill="#555" text-anchor="end">0.72</text>
<text x="74" y="160.1" font-size="10" fill="#555" text-anchor="end">0.76</text>
<text x="74" y="83.0" font-size="10" fill="#555" text-anchor="end">0.80</text>
<text x="320" y="386" font-size="12" fill="#1a1a2e" text-anchor="middle">activation tokens (log)</text>
<text x="24" y="215" font-size="12" fill="#1a1a2e" text-anchor="middle" transform="rotate(-90 24 215)">AutoInterp score</text>
<line x1="80" y1="245.3" x2="560" y2="245.3" stroke="#999" stroke-dasharray="3 3"/>
<text x="86" y="240.3" font-size="10.5" fill="#999">null baseline (predict none) = 0.714</text>
<line x1="80" y1="118.0" x2="560" y2="118.0" stroke="#c44e3a" stroke-dasharray="5 4" stroke-width="1.4"/>
<text x="558" y="112.0" font-size="11" fill="#c44e3a" text-anchor="end">published (2M) = 0.780</text>
<polyline points="102.6,253.6 238.9,179.9" fill="none" stroke="#3a6ea5" stroke-width="2"/>
<circle cx="102.6" cy="253.6" r="4" fill="#3a6ea5"/>
<text x="102.6" y="244.6" font-size="10.5" fill="#3a6ea5" text-anchor="middle">0.710</text>
<circle cx="238.9" cy="179.9" r="4" fill="#3a6ea5"/>
<text x="238.9" y="170.9" font-size="10.5" fill="#3a6ea5" text-anchor="middle">0.748</text>
<circle cx="537.4" cy="118.0" r="4" fill="#c44e3a"/>
</svg>