<svg xmlns="http://www.w3.org/2000/svg" viewBox="0 0 760 418" font-family="Inter,Arial,sans-serif">
<rect width="760" height="418" fill="white"/>
<text x="30" y="32" font-size="16.5" font-weight="700" fill="#1a1a2e">AutoInterp explanations (gpt-4o-mini judge)</text>
<text x="30" y="52" font-size="12" fill="#555">Standard 4k SAE, Pythia-160M L8 — sample latents (high / mid / low detection score)</text>
<text x="40" y="72" font-size="11" font-weight="700" fill="#1a1a2e">latent</text>
<text x="110" y="72" font-size="11" font-weight="700" fill="#1a1a2e">explanation</text>
<text x="690" y="72" font-size="11" font-weight="700" fill="#1a1a2e">score</text>
<rect x="30" y="92" width="700" height="26" fill="#f7f7fa"/>
<text x="40" y="110" font-size="11" fill="#1a1a2e">2735</text>
<text x="110" y="110" font-size="11" fill="#333">the word 'through' in various contexts</text>
<text x="690" y="110" font-size="11" font-weight="700" fill="#2e8b57">1.000</text>
<text x="40" y="136" font-size="11" fill="#1a1a2e">1062</text>
<text x="110" y="136" font-size="11" fill="#333">words and substrings related to code functions and Boolean operations in progr</text>
<text x="690" y="136" font-size="11" font-weight="700" fill="#2e8b57">0.929</text>
<rect x="30" y="144" width="700" height="26" fill="#f7f7fa"/>
<text x="40" y="162" font-size="11" fill="#1a1a2e">2280</text>
<text x="110" y="162" font-size="11" fill="#333">terms related to configuration and settings in programming contexts</text>
<text x="690" y="162" font-size="11" font-weight="700" fill="#2e8b57">0.929</text>
<text x="40" y="188" font-size="11" fill="#1a1a2e">3032</text>
<text x="110" y="188" font-size="11" fill="#333">phrases indicating ways or methods to achieve something</text>
<text x="690" y="188" font-size="11" font-weight="700" fill="#2e8b57">0.929</text>
<rect x="30" y="196" width="700" height="26" fill="#f7f7fa"/>
<text x="40" y="214" font-size="11" fill="#1a1a2e">3498</text>
<text x="110" y="214" font-size="11" fill="#333">words related to actions and concepts of sharing and communication</text>
<text x="690" y="214" font-size="11" font-weight="700" fill="#2e8b57">0.786</text>
<text x="40" y="240" font-size="11" fill="#1a1a2e">39</text>
<text x="110" y="240" font-size="11" fill="#333">text discussing control, representation, and transformation in various context</text>
<text x="690" y="240" font-size="11" font-weight="700" fill="#b8860b">0.714</text>
<rect x="30" y="248" width="700" height="26" fill="#f7f7fa"/>
<text x="40" y="266" font-size="11" fill="#1a1a2e">154</text>
<text x="110" y="266" font-size="11" fill="#333">phrases related to provision, determination, significant change, and various c</text>
<text x="690" y="266" font-size="11" font-weight="700" fill="#b8860b">0.714</text>
<text x="40" y="292" font-size="11" fill="#1a1a2e">171</text>
<text x="110" y="292" font-size="11" fill="#333">the word 'can' and concepts related to capability or potential</text>
<text x="690" y="292" font-size="11" font-weight="700" fill="#b8860b">0.714</text>
<rect x="30" y="300" width="700" height="26" fill="#f7f7fa"/>
<text x="40" y="318" font-size="11" fill="#1a1a2e">3776</text>
<text x="110" y="318" font-size="11" fill="#333">terms related to legal cases and judicial language</text>
<text x="690" y="318" font-size="11" font-weight="700" fill="#b8860b">0.571</text>
<text x="40" y="344" font-size="11" fill="#1a1a2e">180</text>
<text x="110" y="344" font-size="11" fill="#333">the concepts of measurement and response to conditions in various contexts</text>
<text x="690" y="344" font-size="11" font-weight="700" fill="#b8860b">0.429</text>
<rect x="30" y="352" width="700" height="26" fill="#f7f7fa"/>
<text x="40" y="370" font-size="11" fill="#1a1a2e">1252</text>
<text x="110" y="370" font-size="11" fill="#333">phrases related to processes, methods, and actions involving effort, mistakes,</text>
<text x="690" y="370" font-size="11" font-weight="700" fill="#b8860b">0.429</text>
<text x="40" y="396" font-size="11" fill="#1a1a2e">2428</text>
<text x="110" y="396" font-size="11" fill="#333">technical terms and concepts related to scientific and legal contexts</text>
<text x="690" y="396" font-size="11" font-weight="700" fill="#b8860b">0.429</text>
</svg>