<svg xmlns="http://www.w3.org/2000/svg" viewBox="0 0 760 460" font-family="Inter,Arial,sans-serif">
<rect width="760" height="460" fill="white"/>
<text x="30" y="32" font-size="17" font-weight="700" fill="#1a1a2e">Full Core metric reproduction vs Neuronpedia</text>
<text x="30" y="52" font-size="12" fill="#555">42 SAEs (7 arch × 6 sparsity), 4k Pythia-160M L8 — mean rel error vs published, Pearson r</text>
<line x1="267.0" y1="64" x2="267.0" y2="450" stroke="#eee"/>
<text x="267.0" y="458" font-size="9" fill="#999" text-anchor="middle">0.01%</text>
<line x1="323.4" y1="64" x2="323.4" y2="450" stroke="#eee"/>
<text x="323.4" y="458" font-size="9" fill="#999" text-anchor="middle">0.1%</text>
<line x1="379.7" y1="64" x2="379.7" y2="450" stroke="#eee"/>
<text x="379.7" y="458" font-size="9" fill="#999" text-anchor="middle">1%</text>
<line x1="436.1" y1="64" x2="436.1" y2="450" stroke="#eee"/>
<text x="436.1" y="458" font-size="9" fill="#999" text-anchor="middle">10%</text>
<line x1="379.7" y1="64" x2="379.7" y2="450" stroke="#2e8b57" stroke-dasharray="4 3" stroke-width="1.3"/>
<text x="242" y="82" font-size="11" fill="#1a1a2e" text-anchor="end">average_max_encoder_cosine_sim</text>
<rect x="250" y="71" width="1.0" height="11" rx="3" fill="#2e8b57" opacity="0.85"/>
<text x="258.0" y="81" font-size="10.5" fill="#1a1a2e">0.00%  <tspan fill="#888">r=1.000</tspan></text>
<text x="242" y="108" font-size="11" fill="#1a1a2e" text-anchor="end">average_max_decoder_cosine_sim</text>
<rect x="250" y="97" width="1.0" height="11" rx="3" fill="#2e8b57" opacity="0.85"/>
<text x="258.0" y="107" font-size="10.5" fill="#1a1a2e">0.00%  <tspan fill="#888">r=1.000</tspan></text>
<text x="242" y="134" font-size="11" fill="#1a1a2e" text-anchor="end">relative_reconstruction_bias</text>
<rect x="250" y="123" width="21.4" height="11" rx="3" fill="#2e8b57" opacity="0.85"/>
<text x="279.4" y="133" font-size="10.5" fill="#1a1a2e">0.01%  <tspan fill="#888">r=1.000</tspan></text>
<text x="242" y="160" font-size="11" fill="#1a1a2e" text-anchor="end">cossim</text>
<rect x="250" y="149" width="77.2" height="11" rx="3" fill="#2e8b57" opacity="0.85"/>
<text x="335.2" y="159" font-size="10.5" fill="#1a1a2e">0.12%  <tspan fill="#888">r=1.000</tspan></text>
<text x="242" y="186" font-size="11" fill="#1a1a2e" text-anchor="end">l2_ratio</text>
<rect x="250" y="175" width="78.2" height="11" rx="3" fill="#2e8b57" opacity="0.85"/>
<text x="336.2" y="185" font-size="10.5" fill="#1a1a2e">0.12%  <tspan fill="#888">r=1.000</tspan></text>
<text x="242" y="212" font-size="11" fill="#1a1a2e" text-anchor="end">loss_recovered</text>
<rect x="250" y="201" width="82.1" height="11" rx="3" fill="#2e8b57" opacity="0.85"/>
<text x="340.1" y="211" font-size="10.5" fill="#1a1a2e">0.14%  <tspan fill="#888">r=1.000</tspan></text>
<text x="242" y="238" font-size="11" fill="#1a1a2e" text-anchor="end">l1</text>
<rect x="250" y="227" width="103.3" height="11" rx="3" fill="#2e8b57" opacity="0.85"/>
<text x="361.3" y="237" font-size="10.5" fill="#1a1a2e">0.34%  <tspan fill="#888">r=1.000</tspan></text>
<text x="242" y="264" font-size="11" fill="#1a1a2e" text-anchor="end">explained_variance</text>
<rect x="250" y="253" width="104.1" height="11" rx="3" fill="#2e8b57" opacity="0.85"/>
<text x="362.1" y="263" font-size="10.5" fill="#1a1a2e">0.35%  <tspan fill="#888">r=1.000</tspan></text>
<text x="242" y="290" font-size="11" fill="#1a1a2e" text-anchor="end">l2_norm_in</text>
<rect x="250" y="279" width="107.5" height="11" rx="3" fill="#2e8b57" opacity="0.85"/>
<text x="365.5" y="289" font-size="10.5" fill="#1a1a2e">0.40%  <tspan fill="#888"></tspan></text>
<text x="242" y="316" font-size="11" fill="#1a1a2e" text-anchor="end">l2_norm_out</text>
<rect x="250" y="305" width="110.4" height="11" rx="3" fill="#2e8b57" opacity="0.85"/>
<text x="368.4" y="315" font-size="10.5" fill="#1a1a2e">0.45%  <tspan fill="#888">r=1.000</tspan></text>
<text x="242" y="342" font-size="11" fill="#1a1a2e" text-anchor="end">mse</text>
<rect x="250" y="331" width="113.6" height="11" rx="3" fill="#2e8b57" opacity="0.85"/>
<text x="371.6" y="341" font-size="10.5" fill="#1a1a2e">0.52%  <tspan fill="#888">r=1.000</tspan></text>
<text x="242" y="368" font-size="11" fill="#1a1a2e" text-anchor="end">l0</text>
<rect x="250" y="357" width="124.9" height="11" rx="3" fill="#2e8b57" opacity="0.85"/>
<text x="382.9" y="367" font-size="10.5" fill="#1a1a2e">0.82%  <tspan fill="#888">r=1.000</tspan></text>
<text x="242" y="394" font-size="11" fill="#1a1a2e" text-anchor="end">freq_over_1_percent</text>
<rect x="250" y="383" width="155.1" height="11" rx="3" fill="#b8860b" opacity="0.85"/>
<text x="413.1" y="393" font-size="10.5" fill="#1a1a2e">2.82%  <tspan fill="#888">r=0.999</tspan></text>
<text x="242" y="420" font-size="11" fill="#1a1a2e" text-anchor="end">frac_alive</text>
<rect x="250" y="409" width="173.9" height="11" rx="3" fill="#c44e3a" opacity="0.85"/>
<text x="431.9" y="419" font-size="10.5" fill="#1a1a2e">6.08%  <tspan fill="#888">r=0.976</tspan></text>
<text x="242" y="446" font-size="11" fill="#1a1a2e" text-anchor="end">freq_over_10_percent</text>
<rect x="250" y="435" width="186.7" height="11" rx="3" fill="#c44e3a" opacity="0.85"/>
<text x="444.7" y="445" font-size="10.5" fill="#1a1a2e">10.24%  <tspan fill="#888">r=1.000</tspan></text>
</svg>