<svg xmlns="http://www.w3.org/2000/svg" viewBox="0 0 760 470" font-family="Inter,Arial,sans-serif">
<rect width="760" height="470" fill="white"/>
<text x="30" y="34" font-size="18" font-weight="700" fill="#1a1a2e">Sparsity–Fidelity frontier (Core / Loss Recovered)</text>
<text x="30" y="55" font-size="12" fill="#555">Pythia-160M L8 · 4k width · 7 architectures × 6 sparsities · per-document ctx1024</text>
<line x1="70" y1="410" x2="600" y2="410" stroke="#1a1a2e" stroke-width="1.2"/>
<line x1="70" y1="80" x2="70" y2="410" stroke="#1a1a2e" stroke-width="1.2"/>
<line x1="89.1" y1="80" x2="89.1" y2="410" stroke="#eee"/>
<text x="89.1" y="426" font-size="10" fill="#555" text-anchor="middle">20</text>
<line x1="188.0" y1="80" x2="188.0" y2="410" stroke="#eee"/>
<text x="188.0" y="426" font-size="10" fill="#555" text-anchor="middle">40</text>
<line x1="286.9" y1="80" x2="286.9" y2="410" stroke="#eee"/>
<text x="286.9" y="426" font-size="10" fill="#555" text-anchor="middle">80</text>
<line x1="385.8" y1="80" x2="385.8" y2="410" stroke="#eee"/>
<text x="385.8" y="426" font-size="10" fill="#555" text-anchor="middle">160</text>
<line x1="484.7" y1="80" x2="484.7" y2="410" stroke="#eee"/>
<text x="484.7" y="426" font-size="10" fill="#555" text-anchor="middle">320</text>
<line x1="583.6" y1="80" x2="583.6" y2="410" stroke="#eee"/>
<text x="583.6" y="426" font-size="10" fill="#555" text-anchor="middle">640</text>
<line x1="70" y1="411.6" x2="600" y2="411.6" stroke="#f0f0f0"/>
<text x="64" y="415.6" font-size="10" fill="#555" text-anchor="end">0.90</text>
<line x1="70" y1="345.9" x2="600" y2="345.9" stroke="#f0f0f0"/>
<text x="64" y="349.9" font-size="10" fill="#555" text-anchor="end">0.92</text>
<line x1="70" y1="280.3" x2="600" y2="280.3" stroke="#f0f0f0"/>
<text x="64" y="284.3" font-size="10" fill="#555" text-anchor="end">0.94</text>
<line x1="70" y1="214.6" x2="600" y2="214.6" stroke="#f0f0f0"/>
<text x="64" y="218.6" font-size="10" fill="#555" text-anchor="end">0.96</text>
<line x1="70" y1="148.9" x2="600" y2="148.9" stroke="#f0f0f0"/>
<text x="64" y="152.9" font-size="10" fill="#555" text-anchor="end">0.98</text>
<line x1="70" y1="83.3" x2="600" y2="83.3" stroke="#f0f0f0"/>
<text x="64" y="87.3" font-size="10" fill="#555" text-anchor="end">1.00</text>
<text x="335" y="448" font-size="12" fill="#1a1a2e" text-anchor="middle">L0 (mean active latents / token, log scale)</text>
<text x="22" y="245" font-size="12" fill="#1a1a2e" text-anchor="middle" transform="rotate(-90 22 245)">Loss Recovered</text>
<polyline points="86.4,267.5 184.0,199.7 280.7,154.9 380.2,120.7 481.0,96.2 581.4,84.9" fill="none" stroke="#2e8b57" stroke-width="2" opacity="0.9"/>
<circle cx="86.4" cy="267.5" r="3" fill="#2e8b57"/>
<circle cx="184.0" cy="199.7" r="3" fill="#2e8b57"/>
<circle cx="280.7" cy="154.9" r="3" fill="#2e8b57"/>
<circle cx="380.2" cy="120.7" r="3" fill="#2e8b57"/>
<circle cx="481.0" cy="96.2" r="3" fill="#2e8b57"/>
<circle cx="581.4" cy="84.9" r="3" fill="#2e8b57"/>
<circle cx="622" cy="80" r="4" fill="#2e8b57"/><text x="632" y="84" font-size="11" fill="#1a1a2e">BatchTopK</text>
<polyline points="143.7,237.6 207.9,195.3 299.9,150.0 423.7,112.9 491.5,95.6 535.4,87.7" fill="none" stroke="#d98c00" stroke-width="2" opacity="0.9"/>
<circle cx="143.7" cy="237.6" r="3" fill="#d98c00"/>
<circle cx="207.9" cy="195.3" r="3" fill="#d98c00"/>
<circle cx="299.9" cy="150.0" r="3" fill="#d98c00"/>
<circle cx="423.7" cy="112.9" r="3" fill="#d98c00"/>
<circle cx="491.5" cy="95.6" r="3" fill="#d98c00"/>
<circle cx="535.4" cy="87.7" r="3" fill="#d98c00"/>
<circle cx="622" cy="100" r="4" fill="#d98c00"/><text x="632" y="104" font-size="11" fill="#1a1a2e">GatedSAE</text>
<polyline points="90.6,292.8 186.4,205.3 283.3,155.5 381.0,120.8 481.6,95.4 575.8,86.3" fill="none" stroke="#8e44ad" stroke-width="2" opacity="0.9"/>
<circle cx="90.6" cy="292.8" r="3" fill="#8e44ad"/>
<circle cx="186.4" cy="205.3" r="3" fill="#8e44ad"/>
<circle cx="283.3" cy="155.5" r="3" fill="#8e44ad"/>
<circle cx="381.0" cy="120.8" r="3" fill="#8e44ad"/>
<circle cx="481.6" cy="95.4" r="3" fill="#8e44ad"/>
<circle cx="575.8" cy="86.3" r="3" fill="#8e44ad"/>
<circle cx="622" cy="120" r="4" fill="#8e44ad"/><text x="632" y="124" font-size="11" fill="#1a1a2e">JumpRelu</text>
<polyline points="86.8,299.4 185.0,214.2 282.6,164.9 380.7,124.9 480.7,102.4 581.5,85.5" fill="none" stroke="#16a3a3" stroke-width="2" opacity="0.9"/>
<circle cx="86.8" cy="299.4" r="3" fill="#16a3a3"/>
<circle cx="185.0" cy="214.2" r="3" fill="#16a3a3"/>
<circle cx="282.6" cy="164.9" r="3" fill="#16a3a3"/>
<circle cx="380.7" cy="124.9" r="3" fill="#16a3a3"/>
<circle cx="480.7" cy="102.4" r="3" fill="#16a3a3"/>
<circle cx="581.5" cy="85.5" r="3" fill="#16a3a3"/>
<circle cx="622" cy="140" r="4" fill="#16a3a3"/><text x="632" y="144" font-size="11" fill="#1a1a2e">Matryoshka</text>
<polyline points="147.9,290.8 206.4,246.2 289.7,192.3 425.6,131.7 490.4,109.2 531.0,95.9" fill="none" stroke="#7f8c8d" stroke-width="2" opacity="0.9"/>
<circle cx="147.9" cy="290.8" r="3" fill="#7f8c8d"/>
<circle cx="206.4" cy="246.2" r="3" fill="#7f8c8d"/>
<circle cx="289.7" cy="192.3" r="3" fill="#7f8c8d"/>
<circle cx="425.6" cy="131.7" r="3" fill="#7f8c8d"/>
<circle cx="490.4" cy="109.2" r="3" fill="#7f8c8d"/>
<circle cx="531.0" cy="95.9" r="3" fill="#7f8c8d"/>
<circle cx="622" cy="160" r="4" fill="#7f8c8d"/><text x="632" y="164" font-size="11" fill="#1a1a2e">PAnneal</text>
<polyline points="199.6,377.2 281.4,284.5 343.4,228.8 430.8,170.6 490.2,143.4 534.6,124.0" fill="none" stroke="#c44e3a" stroke-width="2" opacity="0.9"/>
<circle cx="199.6" cy="377.2" r="3" fill="#c44e3a"/>
<circle cx="281.4" cy="284.5" r="3" fill="#c44e3a"/>
<circle cx="343.4" cy="228.8" r="3" fill="#c44e3a"/>
<circle cx="430.8" cy="170.6" r="3" fill="#c44e3a"/>
<circle cx="490.2" cy="143.4" r="3" fill="#c44e3a"/>
<circle cx="534.6" cy="124.0" r="3" fill="#c44e3a"/>
<circle cx="622" cy="180" r="4" fill="#c44e3a"/><text x="632" y="184" font-size="11" fill="#1a1a2e">Standard</text>
<polyline points="89.1,288.6 188.0,206.0 286.9,159.5 385.8,122.9 484.7,96.3 583.6,86.2" fill="none" stroke="#3a6ea5" stroke-width="2" opacity="0.9"/>
<circle cx="89.1" cy="288.6" r="3" fill="#3a6ea5"/>
<circle cx="188.0" cy="206.0" r="3" fill="#3a6ea5"/>
<circle cx="286.9" cy="159.5" r="3" fill="#3a6ea5"/>
<circle cx="385.8" cy="122.9" r="3" fill="#3a6ea5"/>
<circle cx="484.7" cy="96.3" r="3" fill="#3a6ea5"/>
<circle cx="583.6" cy="86.2" r="3" fill="#3a6ea5"/>
<circle cx="622" cy="200" r="4" fill="#3a6ea5"/><text x="632" y="204" font-size="11" fill="#1a1a2e">TopK</text>
</svg>